<?xml version="1.0" standalone="no"?>
<!DOCTYPE svg PUBLIC "-//W3C//DTD SVG 20010904//EN"
 "http://www.w3.org/TR/2001/REC-SVG-20010904/DTD/svg10.dtd">
<svg version="1.0" xmlns="http://www.w3.org/2000/svg"
 width="1024.000000pt" height="1024.000000pt" viewBox="0 0 1024.000000 1024.000000"
 preserveAspectRatio="xMidYMid meet">
<metadata>
Created by potrace 1.11, written by Peter Selinger 2001-2013
</metadata>
<g transform="translate(0.000000,1024.000000) scale(0.100000,-0.100000)"
fill="#000000" stroke="none">
<path d="M7367 7940 c-318 -57 -606 -221 -897 -510 -241 -240 -399 -501 -474
-784 -41 -151 -49 -259 -30 -397 31 -227 140 -407 341 -561 88 -68 177 -114
365 -188 l169 -67 -58 -27 c-295 -137 -389 -184 -505 -250 -265 -150 -496
-324 -693 -521 -245 -244 -312 -342 -569 -828 -192 -362 -442 -675 -670 -835
-131 -92 -308 -172 -381 -172 -61 0 -86 49 -100 195 -8 83 -9 271 -2 320 4 22
9 69 12 105 31 328 157 1043 262 1485 145 611 152 631 289 774 128 134 149
158 242 281 125 164 221 328 288 488 121 289 167 506 160 756 -2 100 -7 130
-25 173 -64 146 -294 255 -415 198 -126 -60 -300 -296 -486 -660 -165 -321
-357 -839 -486 -1303 -79 -288 -90 -317 -137 -357 -55 -48 -192 -138 -283
-187 l-76 -41 6 104 c4 57 9 115 11 129 2 14 7 70 10 125 4 55 8 118 10 140 2
22 6 81 10 130 3 50 8 117 10 150 8 110 15 248 20 460 4 116 8 260 10 320 7
187 19 744 19 856 -1 142 -21 210 -86 290 -47 57 -188 120 -274 123 -50 1 -89
-23 -118 -73 -10 -17 -40 -93 -66 -169 -68 -195 -101 -275 -201 -487 -81 -173
-252 -449 -380 -615 -199 -257 -506 -517 -692 -585 -126 -45 -192 -25 -273 83
-55 75 -122 220 -145 317 -18 78 -21 108 -15 220 3 72 8 146 11 165 25 156 61
287 119 422 23 57 46 110 49 119 4 13 -5 20 -40 30 -57 16 -66 10 -113 -71
-106 -188 -169 -410 -175 -620 -10 -376 143 -684 405 -816 182 -91 448 -80
663 27 233 117 486 366 676 665 92 145 301 552 301 587 0 7 5 6 14 -3 12 -13
5 -84 -45 -480 -32 -256 -60 -490 -64 -520 -3 -30 -7 -66 -10 -80 -2 -14 -6
-45 -9 -70 -3 -25 -26 -209 -51 -410 -25 -201 -48 -390 -51 -420 -16 -154 -44
-322 -59 -348 -9 -15 -33 -39 -53 -52 -175 -118 -380 -263 -442 -312 -319
-253 -530 -580 -654 -1011 -44 -151 -60 -261 -60 -412 1 -141 2 -152 24 -235
44 -164 170 -274 370 -324 305 -75 535 35 777 373 217 300 345 673 448 1297
31 189 45 275 49 304 25 164 68 383 77 398 10 17 142 105 204 138 11 6 38 22
60 36 22 13 51 31 64 37 l24 13 -7 -48 c-4 -27 -22 -143 -41 -259 -18 -115
-36 -228 -40 -250 -3 -22 -15 -96 -26 -165 -20 -133 -52 -356 -67 -480 -13
-107 -12 -301 3 -400 84 -544 515 -904 920 -768 113 38 217 111 335 234 88 93
191 224 245 311 21 35 39 63 39 63 1 0 3 -19 4 -42 6 -114 51 -272 104 -368
134 -239 404 -428 721 -502 141 -33 440 -32 617 2 271 52 566 183 850 378 471
325 843 679 1129 1077 151 210 875 1375 936 1507 22 48 23 54 9 70 -25 27 -72
33 -96 12 -24 -23 -46 -60 -28 -49 6 4 -10 -28 -37 -71 -27 -44 -166 -267
-308 -497 -272 -438 -367 -577 -538 -792 -237 -297 -592 -657 -863 -875 -409
-329 -869 -540 -1318 -605 -50 -7 -223 -7 -259 0 -97 19 -203 80 -267 152
-163 185 -165 479 -7 893 36 93 94 215 139 289 21 34 38 65 38 67 0 8 118 176
179 254 97 125 185 222 317 352 360 353 734 597 1244 812 102 43 218 94 259
113 84 38 191 102 191 113 0 4 -21 31 -46 59 -78 86 -173 122 -299 112 -133
-11 -697 -6 -768 7 -224 41 -322 174 -312 427 6 154 112 473 219 655 20 34 36
64 36 67 0 10 112 166 171 238 148 181 404 393 584 483 80 40 208 79 309 95
208 33 282 -10 353 -203 25 -68 27 -87 27 -210 0 -187 -35 -296 -145 -455 -89
-130 -166 -184 -260 -185 l-34 -1 30 -25 c39 -32 119 -55 170 -49 115 15 297
153 407 310 193 273 230 559 97 751 -50 73 -68 91 -149 153 -124 93 -293 167
-472 207 -114 26 -367 27 -501 4z m-2482 -892 c-18 -144 -47 -267 -100 -426
-43 -128 -133 -326 -192 -423 -15 -25 -37 -60 -48 -77 -21 -35 -35 -42 -29
-14 45 208 148 529 225 699 10 24 19 45 19 47 0 18 117 246 127 246 3 0 2 -24
-2 -52z m-2238 -2785 c-4 -60 -9 -119 -11 -133 -3 -14 -7 -41 -10 -60 -25
-171 -125 -513 -201 -685 -115 -266 -202 -428 -300 -560 -57 -78 -143 -165
-183 -186 -21 -12 -26 -11 -41 10 -91 120 -83 534 14 827 107 320 378 669 665
857 30 20 59 36 64 36 5 1 6 -46 3 -106z"/>
</g>
</svg>
