<?xml version="1.0" encoding="UTF-8"?>
<svg width="85px" height="107px" viewBox="1408 1037 85 107" xmlns="http://www.w3.org/2000/svg" xmlns:xlink="http://www.w3.org/1999/xlink" version="1.1">
 <!-- Generated by Pixelmator Pro 1.7.1 -->
 <g id="Regular-M">
  <path id="Path" d="M1408.781 1127.807 C1408.781 1138.012 1413.81 1143.09 1423.918 1143.09 L1475.773 1143.09 C1485.881 1143.09 1490.91 1138.012 1490.91 1127.807 L1490.91 1053.734 C1490.91 1043.578 1485.881 1038.402 1475.773 1038.402 L1423.918 1038.402 C1413.81 1038.402 1408.781 1043.578 1408.781 1053.734 Z M1416.642 1127.66 L1416.642 1053.881 C1416.642 1048.998 1419.23 1046.264 1424.308 1046.264 L1475.383 1046.264 C1480.461 1046.264 1483.049 1048.998 1483.049 1053.881 L1483.049 1127.66 C1483.049 1132.543 1480.461 1135.229 1475.383 1135.229 L1424.308 1135.229 C1419.23 1135.229 1416.642 1132.543 1416.642 1127.66 Z M1431.389 1066.723 L1468.4 1066.723 C1470.158 1066.723 1471.428 1065.355 1471.428 1063.646 1471.428 1061.986 1470.158 1060.717 1468.4 1060.717 L1431.389 1060.717 C1429.631 1060.717 1428.312 1061.986 1428.312 1063.646 1428.312 1065.355 1429.631 1066.723 1431.389 1066.723 Z M1431.389 1083.764 L1468.4 1083.764 C1470.158 1083.764 1471.428 1082.396 1471.428 1080.688 1471.428 1079.027 1470.158 1077.758 1468.4 1077.758 L1431.389 1077.758 C1429.631 1077.758 1428.312 1079.027 1428.312 1080.688 1428.312 1082.396 1429.631 1083.764 1431.389 1083.764 Z M1431.389 1100.805 L1448.918 1100.805 C1450.627 1100.805 1451.945 1099.486 1451.945 1097.826 1451.945 1096.117 1450.627 1094.799 1448.918 1094.799 L1431.389 1094.799 C1429.631 1094.799 1428.312 1096.117 1428.312 1097.826 1428.312 1099.486 1429.631 1100.805 1431.389 1100.805 Z" fill="#ffffff" fill-opacity="1" stroke="none"/>
 </g>
</svg>
