<?xml version="1.0" encoding="UTF-8"?>
<svg width="85px" height="107px" viewBox="1408 1037 85 107" xmlns="http://www.w3.org/2000/svg" xmlns:xlink="http://www.w3.org/1999/xlink" version="1.1">
 <!-- Generated by Pixelmator Pro 1.7.1 -->
 <g id="Regular-M">
  <path id="Path" d="M1408.781 1127.807 C1408.781 1138.012 1413.81 1143.09 1423.918 1143.09 L1475.773 1143.09 C1485.881 1143.09 1490.91 1138.012 1490.91 1127.807 L1490.91 1053.734 C1490.91 1043.578 1485.881 1038.402 1475.773 1038.402 L1423.918 1038.402 C1413.81 1038.402 1408.781 1043.578 1408.781 1053.734 Z M1416.642 1127.66 L1416.642 1053.881 C1416.642 1048.998 1419.23 1046.264 1424.308 1046.264 L1475.383 1046.264 C1480.461 1046.264 1483.049 1048.998 1483.049 1053.881 L1483.049 1127.66 C1483.049 1132.543 1480.461 1135.229 1475.383 1135.229 L1424.308 1135.229 C1419.23 1135.229 1416.642 1132.543 1416.642 1127.66 Z M1462.639 1087.865 C1468.596 1087.865 1472.697 1083.813 1472.697 1077.904 1472.697 1072.191 1469.182 1068.432 1464.006 1068.432 1461.418 1068.432 1459.269 1069.262 1457.805 1071.117 L1456.779 1071.117 C1457.17 1069.408 1458.244 1067.699 1459.855 1066.332 1461.418 1064.916 1463.322 1064.037 1465.519 1063.549 1467.326 1063.158 1467.912 1062.572 1467.912 1061.498 1467.912 1060.521 1467.18 1059.74 1465.764 1059.74 1462.59 1059.74 1458.537 1061.742 1455.9 1064.574 1453.166 1067.553 1451.799 1071.41 1451.799 1075.512 1451.799 1083.324 1456.633 1087.865 1462.639 1087.865 Z M1437.932 1087.914 C1443.84 1087.914 1447.99 1083.861 1447.99 1077.953 1447.99 1072.24 1444.474 1068.48 1439.299 1068.48 1436.662 1068.48 1434.562 1069.311 1433.049 1071.166 L1432.023 1071.166 C1432.414 1069.408 1433.586 1067.65 1435.246 1066.283 1436.808 1064.965 1438.664 1064.037 1440.764 1063.598 1442.57 1063.207 1443.156 1062.621 1443.156 1061.547 1443.156 1060.57 1442.424 1059.789 1441.057 1059.789 1437.883 1059.789 1433.879 1061.693 1431.193 1064.623 1428.41 1067.602 1427.043 1071.459 1427.043 1075.561 1427.043 1083.373 1431.877 1087.914 1437.932 1087.914 Z M1431.389 1104.369 L1468.4 1104.369 C1470.158 1104.369 1471.428 1103.051 1471.428 1101.342 1471.428 1099.682 1470.158 1098.363 1468.4 1098.363 L1431.389 1098.363 C1429.631 1098.363 1428.312 1099.682 1428.312 1101.342 1428.312 1103.051 1429.631 1104.369 1431.389 1104.369 Z M1431.389 1121.41 L1448.918 1121.41 C1450.627 1121.41 1451.945 1120.141 1451.945 1118.432 1451.945 1116.723 1450.627 1115.404 1448.918 1115.404 L1431.389 1115.404 C1429.631 1115.404 1428.312 1116.723 1428.312 1118.432 1428.312 1120.141 1429.631 1121.41 1431.389 1121.41 Z" fill="#ffffff" fill-opacity="1" stroke="none"/>
 </g>
</svg>
