<?xml version="1.0" encoding="UTF-8"?>
<svg width="86px" height="68px" viewBox="0 0 86 68" version="1.1" xmlns="http://www.w3.org/2000/svg" xmlns:xlink="http://www.w3.org/1999/xlink">
    <title>Untitled</title>
    <g id="Page-1" stroke="none" stroke-width="1" fill="none" fill-rule="evenodd">
        <g id="envelope" transform="translate(-1.000000, 0.000000)" fill="#000000" fill-rule="nonzero">
            <g id="Regular-S" transform="translate(0.430000, 0.000000)">
                <path d="M13.2168,67.14453 L74.9844,67.14453 C81.918,67.14453 86.0684,63.0918 86.0684,54.8887 L86.0684,12.7012 C86.0684,4.498 81.8691,0.4453 73.6172,0.4453 L11.8496,0.4453 C4.8672,0.4453 0.76562,4.498 0.76562,12.7012 L0.76562,54.8887 C0.76562,63.0918 4.916,67.14453 13.2168,67.14453 Z M38.8027,35.3086 L10.6777,7.4277 C11.3125,7.2324 12.0938,7.0859 12.9238,7.0859 L73.8613,7.0859 C74.7402,7.0859 75.5215,7.2324 76.1562,7.4277 L48.0312,35.3086 C46.3711,36.9688 44.9551,37.7012 43.4414,37.7012 C41.8789,37.7012 40.4629,36.9199 38.8027,35.3086 Z M7.4551,13.2383 L28.2559,33.7461 L7.4551,54.498 L7.4551,13.2383 Z M58.5781,33.7461 L79.3789,13.2383 L79.3789,54.498 L58.5781,33.7461 Z M12.9238,60.50391 C12.1426,60.50391 11.4102,60.40625 10.7754,60.21094 L32.7969,38.2383 L35.0918,40.4844 C37.875,43.2676 40.5605,44.3906 43.4414,44.3906 C46.2734,44.3906 48.959,43.2676 51.7422,40.4844 L54.0371,38.2383 L76.0586,60.21094 C75.4238,60.40625 74.6914,60.50391 73.8613,60.50391 L12.9238,60.50391 Z" id="Shape" fill="#ffffff" fill-opacity="1" stroke="none"></path>
            </g>
        </g>
    </g>
</svg>