<?xml version="1.0" encoding="UTF-8"?>
<svg width="106px" height="107px" viewBox="1398 1037 106 107" xmlns="http://www.w3.org/2000/svg" xmlns:xlink="http://www.w3.org/1999/xlink" version="1.1">
 <!-- Generated by Pixelmator Pro 1.7.1 -->
 <g id="Regular-M">
  <path id="Path" d="M1449.232 1110.473 L1455.726 1103.881 C1449.281 1103.393 1445.082 1101.439 1441.908 1098.266 1433.363 1089.721 1433.412 1077.611 1441.859 1069.164 L1457.777 1053.246 C1466.322 1044.75 1478.334 1044.701 1486.879 1053.246 1495.424 1061.791 1495.326 1073.852 1486.879 1082.299 L1477.308 1091.869 C1478.676 1094.994 1478.969 1098.607 1478.48 1101.781 L1492.836 1087.475 C1504.506 1075.756 1504.603 1059.203 1492.787 1047.338 1480.922 1035.473 1464.32 1035.57 1452.601 1047.289 L1435.951 1063.988 C1424.232 1075.707 1424.135 1092.309 1436 1104.125 1439.076 1107.201 1442.982 1109.398 1449.232 1110.473 Z M1450.453 1070.238 L1443.959 1076.83 C1450.404 1077.367 1454.603 1079.271 1457.777 1082.445 1466.322 1090.99 1466.273 1103.1 1457.826 1111.547 L1441.859 1127.465 C1433.363 1135.961 1421.351 1136.01 1412.807 1127.514 1404.262 1118.92 1404.31 1106.908 1412.807 1098.412 L1422.377 1088.842 C1421.01 1085.766 1420.668 1082.104 1421.205 1078.93 L1406.849 1093.236 C1395.18 1104.955 1395.082 1121.557 1406.898 1133.373 1418.764 1145.238 1435.365 1145.141 1447.035 1133.471 L1463.734 1116.723 C1475.453 1105.004 1475.551 1088.402 1463.685 1076.586 1460.609 1073.51 1456.703 1071.313 1450.453 1070.238 Z" fill="#ffffff" fill-opacity="1" stroke="none"/>
 </g>
</svg>
